<?xml version="1.0" encoding="utf-8"?>
<!-- Generator: Adobe Illustrator 23.0.2, SVG Export Plug-In . SVG Version: 6.00 Build 0)  -->
<svg version="1.1" id="Layer_1" xmlns="http://www.w3.org/2000/svg" xmlns:xlink="http://www.w3.org/1999/xlink" x="0px" y="0px"
	 viewBox="0 0 1366 230.6162109" style="enable-background:new 0 0 1366 230.6162109;" xml:space="preserve">
<style type="text/css">
	.st0{fill:none;stroke:#D7DADA;stroke-width:15;stroke-linejoin:round;stroke-miterlimit:10;}
</style>
<title>logo-round</title>
<g>
	<polyline class="st0" points="0,173.1162109 138.8177032,173.1162109 180.4280548,131.7119141 1366,131.7119141 	"/>
	<polyline class="st0" points="1366,181.7119141 201.0667267,181.7119141 159.4563751,223.1162109 0,223.1162109 	"/>
	<polyline class="st0" points="1366,32.499527 84.7531509,32.499527 43.1419868,73.9036636 0,73.9036636 	"/>
	<polyline class="st0" points="0,48.9033203 53.8753128,48.9033203 95.4866409,90.3076172 159.0423126,90.3076172 
		200.6526642,131.7119141 1366,131.7119141 	"/>
	<polyline class="st0" points="1366,181.7119141 180.0139923,181.7119141 138.4036407,140.3076172 74.8489456,140.3076172 
		33.2376175,98.9033203 0,98.9033203 	"/>
	<polyline class="st0" points="0,73.9036942 43.5560417,73.9036942 85.1672058,115.3078308 148.7225342,115.3078003 
		190.3336945,156.7119446 1366,156.7119446 	"/>
	<polyline class="st0" points="0,198.1161041 149.1365967,198.1161041 190.747757,156.7119751 1366,156.7119751 	"/>
	<polyline class="st0" points="0,48.9033203 32.823555,48.9033203 74.4348831,7.5 1366,7.5 	"/>
	<polyline class="st0" points="1366,57.5 95.0716019,57.5 53.4602737,98.9033203 0,98.9033203 	"/>
</g>
</svg>
