<?xml version="1.0" encoding="utf-8"?>
<!-- Generator: Adobe Illustrator 23.0.4, SVG Export Plug-In . SVG Version: 6.00 Build 0)  -->
<svg version="1.1" id="Layer_1" xmlns="http://www.w3.org/2000/svg" xmlns:xlink="http://www.w3.org/1999/xlink" x="0px" y="0px"
	 viewBox="0 0 1051.2 466.9" style="enable-background:new 0 0 1051.2 466.9;" xml:space="preserve">
<style type="text/css">
	.st0{fill:#88E4FB;}
	.st1{fill:#1C2423;}
	.st2{fill:#FFFFFF;}
	.st3{fill:#2A3534;}
	.st4{fill:none;}
	.st5{font-family:'Poppins-Regular';}
	.st6{font-size:20px;}
	.st7{fill:#CDE165;}
	.st8{fill:none;stroke:#FFFFFF;stroke-width:2;stroke-miterlimit:10;}
	.st9{fill:none;stroke:#832D82;stroke-width:2;stroke-miterlimit:10;}
	.st10{fill:#832D82;}
	.st11{fill:none;stroke:#BE63BD;stroke-width:2;stroke-miterlimit:10;}
	.st12{fill:#BE63BD;}
	.st13{fill:none;stroke:#DFB1DE;stroke-width:2;stroke-miterlimit:10;}
	.st14{fill:#DFB1DE;}
	.st15{fill:#AE3CAD;}
</style>
<path class="st0" d="M473.6,456.9c14.8,0,26.9-12.1,26.9-26.9v-53.8c0-14.8-12.1-26.9-26.9-26.9h-447c-14.8,0-26.9,12.1-26.9,26.9
	V430c0,14.8,12.1,26.9,26.9,26.9H473.6z"/>
<path class="st1" d="M322.1,178.4L275.7,132c-2.1-2.1-6.3-3.8-9.2-3.8H5.7c-3,0-5.4,2.4-5.4,5.4v44.8H322.1z"/>
<path class="st0" d="M826.1,80.8c0,14.8-12.1,26.9-26.9,26.9H697.7c-14.8,0-26.9-12.1-26.9-26.9V26.9c0-14.8,12.1-26.9,26.9-26.9
	h101.5c14.8,0,26.9,12.1,26.9,26.9V80.8z"/>
<path class="st0" d="M651.5,80.8c0,14.8-12.1,26.9-26.9,26.9H523c-14.8,0-26.9-12.1-26.9-26.9V26.9C496.1,12.1,508.2,0,523,0h101.5
	c14.8,0,26.9,12.1,26.9,26.9V80.8z"/>
<path class="st0" d="M10,80.8c0,14.8,12.1,26.9,26.9,26.9h101.5c14.8,0,26.9-12.1,26.9-26.9V26.9c0-14.8-12.1-26.9-26.9-26.9H36.9
	C22.1,0,10,12.1,10,26.9V80.8z"/>
<path class="st2" d="M138.4,63.8c9.3,0,16.9,7.6,16.9,16.9s-7.6,16.9-16.9,16.9H36.9c-9.3,0-16.9-7.6-16.9-16.9s7.6-16.9,16.9-16.9
	H138.4z"/>
<rect x="405.3" y="-227.7" transform="matrix(-1.836970e-16 1 -1 -1.836970e-16 724.5563 -227.658)" class="st3" width="141.5" height="952.2"/>
<rect x="20" y="73.3" class="st4" width="135.4" height="17.6"/>
<text transform="matrix(1 0 0 1 49.5646 88.1009)" class="st0 st5 st6">Volume</text>
<rect x="20" y="144.5" class="st4" width="267.1" height="17.6"/>
<text transform="matrix(1 0 0 1 20.0001 159.273)" class="st0 st5 st6">Orchestrated by k8s</text>
<rect x="39.1" y="22.5" class="st4" width="101.5" height="16.1"/>
<text transform="matrix(1 0 0 1 64.8922 37.2738)" class="st2 st5 st6">Pod 1</text>
<rect x="523" y="22.5" class="st4" width="101.5" height="16.1"/>
<text transform="matrix(1 0 0 1 546.2018 37.2738)" class="st2 st5 st6">Pod 2</text>
<rect x="697.7" y="22.5" class="st4" width="101.5" height="16.1"/>
<text transform="matrix(1 0 0 1 720.7258 37.2738)" class="st2 st5 st6">Pod 3</text>
<path class="st2" d="M624.6,63.8c9.3,0,16.9,7.6,16.9,16.9s-7.6,16.9-16.9,16.9H523c-9.3,0-16.9-7.6-16.9-16.9s7.6-16.9,16.9-16.9
	H624.6z"/>
<rect x="506.1" y="73.3" class="st4" width="135.4" height="17.6"/>
<text transform="matrix(1 0 0 1 535.6715 88.1009)" class="st0 st5 st6">Volume</text>
<path class="st2" d="M799.2,63.8c9.3,0,16.9,7.6,16.9,16.9s-7.6,16.9-16.9,16.9H697.7c-9.3,0-16.9-7.6-16.9-16.9s7.6-16.9,16.9-16.9
	H799.2z"/>
<rect x="680.7" y="73.3" class="st4" width="135.4" height="17.6"/>
<text transform="matrix(1 0 0 1 710.2955 88.1009)" class="st0 st5 st6">Volume</text>
<path class="st7" d="M138.4,264.9c9.3,0,16.9,7.6,16.9,16.9c0,9.3-7.6,16.9-16.9,16.9H36.9c-9.3,0-16.9-7.6-16.9-16.9
	c0-9.3,7.6-16.9,16.9-16.9H138.4z"/>
<g>
	<rect x="20" y="274.4" class="st4" width="135.4" height="17.6"/>
	<text transform="matrix(1 0 0 1 51.1847 289.1559)" class="st2 st5 st6">Replica</text>
</g>
<path class="st2" d="M63,413.1c9.3,0,16.9,7.6,16.9,16.9c0,9.3-7.6,16.9-16.9,16.9H26.9c-9.3,0-16.9-7.6-16.9-16.9
	c0-9.3,7.6-16.9,16.9-16.9H63z"/>
<rect x="10" y="422.5" class="st4" width="69.9" height="17.6"/>
<text transform="matrix(1 0 0 1 26.2511 437.3133)" class="st3 st5 st6">SSD</text>
<path class="st2" d="M142.9,413.1c9.3,0,16.9,7.6,16.9,16.9c0,9.3-7.6,16.9-16.9,16.9h-36.1c-9.3,0-16.9-7.6-16.9-16.9
	c0-9.3,7.6-16.9,16.9-16.9H142.9z"/>
<rect x="89.9" y="422.5" class="st4" width="69.9" height="17.6"/>
<text transform="matrix(1 0 0 1 106.153 437.3133)" class="st3 st5 st6">SSD</text>
<path class="st2" d="M222.8,413.1c9.3,0,16.9,7.6,16.9,16.9c0,9.3-7.6,16.9-16.9,16.9h-36.1c-9.3,0-16.9-7.6-16.9-16.9
	c0-9.3,7.6-16.9,16.9-16.9H222.8z"/>
<rect x="169.8" y="422.5" class="st4" width="69.9" height="17.6"/>
<text transform="matrix(1 0 0 1 186.0549 437.3133)" class="st3 st5 st6">SSD</text>
<path class="st2" d="M302.7,413.1c9.3,0,16.9,7.6,16.9,16.9c0,9.3-7.6,16.9-16.9,16.9h-36.1c-9.3,0-16.9-7.6-16.9-16.9
	c0-9.3,7.6-16.9,16.9-16.9H302.7z"/>
<rect x="249.7" y="422.5" class="st4" width="69.9" height="17.6"/>
<text transform="matrix(1 0 0 1 265.9568 437.3133)" class="st3 st5 st6">SSD</text>
<path class="st2" d="M393.7,413.1c9.3,0,16.9,7.6,16.9,16.9c0,9.3-7.6,16.9-16.9,16.9h-36.1c-9.3,0-16.9-7.6-16.9-16.9
	c0-9.3,7.6-16.9,16.9-16.9H393.7z"/>
<rect x="340.7" y="422.5" class="st4" width="69.9" height="17.6"/>
<text transform="matrix(1 0 0 1 354.0395 437.3133)" class="st0 st5 st6">RAM</text>
<path class="st2" d="M473.6,413.1c9.3,0,16.9,7.6,16.9,16.9c0,9.3-7.6,16.9-16.9,16.9h-36.1c-9.3,0-16.9-7.6-16.9-16.9
	c0-9.3,7.6-16.9,16.9-16.9H473.6z"/>
<rect x="420.6" y="422.5" class="st4" width="69.9" height="17.6"/>
<text transform="matrix(1 0 0 1 435.3116 437.3133)" class="st0 st5 st6">CPU</text>
<g>
	<rect x="340.7" y="370.3" class="st4" width="149.8" height="17.6"/>
	<text transform="matrix(1 0 0 1 383.3204 385.1222)" class="st2 st5 st6">Node 1</text>
</g>
<path class="st0" d="M1024.3,456.9c14.8,0,26.9-12.1,26.9-26.9v-53.8c0-14.8-12.1-26.9-26.9-26.9h-447c-14.8,0-26.9,12.1-26.9,26.9
	V430c0,14.8,12.1,26.9,26.9,26.9H1024.3z"/>
<path class="st2" d="M613.7,413.1c9.3,0,16.9,7.6,16.9,16.9c0,9.3-7.6,16.9-16.9,16.9h-36.1c-9.3,0-16.9-7.6-16.9-16.9
	c0-9.3,7.6-16.9,16.9-16.9H613.7z"/>
<rect x="560.7" y="422.5" class="st4" width="69.9" height="17.6"/>
<text transform="matrix(1 0 0 1 576.9235 437.3133)" class="st3 st5 st6">SSD</text>
<path class="st2" d="M693.6,413.1c9.3,0,16.9,7.6,16.9,16.9c0,9.3-7.6,16.9-16.9,16.9h-36.1c-9.3,0-16.9-7.6-16.9-16.9
	c0-9.3,7.6-16.9,16.9-16.9H693.6z"/>
<rect x="640.6" y="422.5" class="st4" width="69.9" height="17.6"/>
<text transform="matrix(1 0 0 1 656.8253 437.3133)" class="st3 st5 st6">SSD</text>
<path class="st2" d="M773.5,413.1c9.3,0,16.9,7.6,16.9,16.9c0,9.3-7.6,16.9-16.9,16.9h-36.1c-9.3,0-16.9-7.6-16.9-16.9
	c0-9.3,7.6-16.9,16.9-16.9H773.5z"/>
<rect x="720.5" y="422.5" class="st4" width="69.9" height="17.6"/>
<text transform="matrix(1 0 0 1 736.7273 437.3133)" class="st3 st5 st6">SSD</text>
<path class="st2" d="M853.4,413.1c9.3,0,16.9,7.6,16.9,16.9c0,9.3-7.6,16.9-16.9,16.9h-36.1c-9.3,0-16.9-7.6-16.9-16.9
	c0-9.3,7.6-16.9,16.9-16.9H853.4z"/>
<rect x="800.4" y="422.5" class="st4" width="69.9" height="17.6"/>
<text transform="matrix(1 0 0 1 816.6292 437.3133)" class="st3 st5 st6">SSD</text>
<path class="st2" d="M944.4,413.1c9.3,0,16.9,7.6,16.9,16.9c0,9.3-7.6,16.9-16.9,16.9h-36.1c-9.3,0-16.9-7.6-16.9-16.9
	c0-9.3,7.6-16.9,16.9-16.9H944.4z"/>
<rect x="891.4" y="422.5" class="st4" width="69.9" height="17.6"/>
<text transform="matrix(1 0 0 1 904.7119 437.3133)" class="st0 st5 st6">RAM</text>
<path class="st2" d="M1024.3,413.1c9.3,0,16.9,7.6,16.9,16.9c0,9.3-7.6,16.9-16.9,16.9h-36.1c-9.3,0-16.9-7.6-16.9-16.9
	c0-9.3,7.6-16.9,16.9-16.9H1024.3z"/>
<rect x="971.3" y="422.5" class="st4" width="69.9" height="17.6"/>
<text transform="matrix(1 0 0 1 985.9839 437.3133)" class="st0 st5 st6">CPU</text>
<g>
	<rect x="891.4" y="370.3" class="st4" width="149.8" height="17.6"/>
	<text transform="matrix(1 0 0 1 931.4126 385.1222)" class="st2 st5 st6">Node 2</text>
</g>
<path class="st7" d="M283.8,264.9c9.3,0,16.9,7.6,16.9,16.9c0,9.3-7.6,16.9-16.9,16.9H182.3c-9.3,0-16.9-7.6-16.9-16.9
	c0-9.3,7.6-16.9,16.9-16.9H283.8z"/>
<g>
	<rect x="165.4" y="274.4" class="st4" width="135.4" height="17.6"/>
	<text transform="matrix(1 0 0 1 196.554 289.1559)" class="st2 st5 st6">Replica</text>
</g>
<path class="st7" d="M429.2,264.9c9.3,0,16.9,7.6,16.9,16.9c0,9.3-7.6,16.9-16.9,16.9H327.7c-9.3,0-16.9-7.6-16.9-16.9
	c0-9.3,7.6-16.9,16.9-16.9H429.2z"/>
<g>
	<rect x="310.7" y="274.4" class="st4" width="135.4" height="17.6"/>
	<text transform="matrix(1 0 0 1 341.9233 289.1559)" class="st2 st5 st6">Replica</text>
</g>
<path class="st7" d="M624.6,264.9c9.3,0,16.9,7.6,16.9,16.9c0,9.3-7.6,16.9-16.9,16.9H523c-9.3,0-16.9-7.6-16.9-16.9
	c0-9.3,7.6-16.9,16.9-16.9H624.6z"/>
<g>
	<rect x="506.1" y="274.4" class="st4" width="135.4" height="17.6"/>
	<text transform="matrix(1 0 0 1 537.2916 289.1559)" class="st2 st5 st6">Replica</text>
</g>
<path class="st7" d="M769.9,264.9c9.3,0,16.9,7.6,16.9,16.9c0,9.3-7.6,16.9-16.9,16.9H668.4c-9.3,0-16.9-7.6-16.9-16.9
	c0-9.3,7.6-16.9,16.9-16.9H769.9z"/>
<g>
	<rect x="651.5" y="274.4" class="st4" width="135.4" height="17.6"/>
	<text transform="matrix(1 0 0 1 682.6609 289.1559)" class="st2 st5 st6">Replica</text>
</g>
<path class="st7" d="M915.3,264.9c9.3,0,16.9,7.6,16.9,16.9c0,9.3-7.6,16.9-16.9,16.9H813.8c-9.3,0-16.9-7.6-16.9-16.9
	c0-9.3,7.6-16.9,16.9-16.9H915.3z"/>
<g>
	<rect x="796.8" y="274.4" class="st4" width="135.4" height="17.6"/>
	<text transform="matrix(1 0 0 1 828.0303 289.1559)" class="st2 st5 st6">Replica</text>
</g>
<g>
	<g>
		<line class="st8" x1="87.7" y1="97.7" x2="87.7" y2="195.3"/>
		<g>
			<polygon class="st2" points="79.5,188.7 81,187.3 87.7,194.5 94.4,187.3 95.9,188.7 87.7,197.4 			"/>
		</g>
	</g>
</g>
<g>
	<g>
		<polyline class="st9" points="87.7,262.1 87.7,231.3 571.6,264.1 		"/>
		<g>
			<polygon class="st10" points="95.9,255.5 94.4,254.1 87.7,261.3 81,254.1 79.5,255.5 87.7,264.3 			"/>
		</g>
		<g>
			<polygon class="st10" points="564.5,271.8 563.2,270.3 570.9,264.1 564.1,256.9 565.6,255.5 573.8,264.3 			"/>
		</g>
	</g>
</g>
<g>
	<g>
		<line class="st9" x1="124.2" y1="411" x2="87.7" y2="299.1"/>
		<g>
			<polygon class="st10" points="129.9,402.2 128.1,401.3 123.9,410.3 115.3,405.5 114.4,407.2 124.9,413.1 			"/>
		</g>
	</g>
</g>
<g>
	<g>
		<line class="st11" x1="46.8" y1="411.9" x2="233.1" y2="299.1"/>
		<g>
			<polygon class="st12" points="56.7,415.5 57.1,413.5 47.5,411.5 50.2,402 48.2,401.5 45,413.1 			"/>
		</g>
	</g>
</g>
<g>
	<g>
		<line class="st13" x1="206.6" y1="411.9" x2="378.4" y2="299.1"/>
		<g>
			<polygon class="st14" points="216.6,415.1 216.9,413.1 207.2,411.4 209.6,401.9 207.6,401.4 204.8,413.1 			"/>
		</g>
	</g>
</g>
<g>
	<g>
		<line class="st9" x1="753.6" y1="411.9" x2="573.8" y2="299.1"/>
		<g>
			<polygon class="st10" points="752.3,401.5 750.4,402 752.9,411.5 743.3,413.3 743.6,415.3 755.4,413.1 			"/>
		</g>
	</g>
</g>
<g>
	<g>
		<line class="st11" x1="833.8" y1="411.5" x2="719.2" y2="299.1"/>
		<g>
			<polygon class="st12" points="834.8,401.1 832.8,401.1 833.2,411 823.4,410.7 823.3,412.7 835.3,413.1 			"/>
		</g>
	</g>
</g>
<g>
	<g>
		<line class="st13" x1="835.9" y1="411" x2="864.5" y2="299.1"/>
		<g>
			<polygon class="st14" points="845.4,406.6 844.4,404.9 836.1,410.2 831.3,401.5 829.6,402.5 835.3,413.1 			"/>
		</g>
	</g>
</g>
<g>
	<g>
		<line class="st8" x1="573.8" y1="97.7" x2="573.8" y2="195.3"/>
		<g>
			<polygon class="st2" points="565.6,188.7 567.1,187.3 573.8,194.5 580.5,187.3 582,188.7 573.8,197.4 			"/>
		</g>
	</g>
</g>
<g>
	<g>
		<line class="st8" x1="748.4" y1="97.7" x2="748.4" y2="195.3"/>
		<g>
			<polygon class="st2" points="740.2,188.7 741.7,187.3 748.4,194.5 755.1,187.3 756.6,188.7 748.4,197.4 			"/>
		</g>
	</g>
</g>
<g>
	<g>
		<polyline class="st11" points="235.2,264 573.8,231.3 717,264.4 		"/>
		<g>
			<polygon class="st12" points="242.6,271.5 243.8,270 236,264 242.5,256.6 241,255.3 233.1,264.3 			"/>
		</g>
		<g>
			<polygon class="st12" points="708.7,270.9 707.7,269.2 716.3,264.2 710.8,256.1 712.4,254.9 719.2,264.9 			"/>
		</g>
	</g>
</g>
<g>
	<g>
		<polyline class="st13" points="380.6,264.1 749.2,231.3 862.4,264.3 		"/>
		<g>
			<polygon class="st14" points="387.9,271.6 389.1,270 381.3,264 387.9,256.7 386.5,255.3 378.4,264.3 			"/>
		</g>
		<g>
			<polygon class="st14" points="853.8,270.3 852.9,268.5 861.7,264.1 856.7,255.6 858.4,254.6 864.5,264.9 			"/>
		</g>
	</g>
</g>
<path class="st15" d="M138.4,197.4c9.3,0,16.9,7.6,16.9,16.9c0,9.3-7.6,16.9-16.9,16.9H36.9c-9.3,0-16.9-7.6-16.9-16.9
	c0-9.3,7.6-16.9,16.9-16.9H138.4z"/>
<g>
	<rect x="20" y="206.9" class="st4" width="135.4" height="17.6"/>
	<text transform="matrix(1 0 0 1 54.8546 221.7074)" class="st2 st5 st6">Engine</text>
</g>
<path class="st15" d="M624.6,197.4c9.3,0,16.9,7.6,16.9,16.9c0,9.3-7.6,16.9-16.9,16.9H523c-9.3,0-16.9-7.6-16.9-16.9
	c0-9.3,7.6-16.9,16.9-16.9H624.6z"/>
<g>
	<rect x="506.1" y="206.9" class="st4" width="135.4" height="17.6"/>
	<text transform="matrix(1 0 0 1 540.9615 221.7074)" class="st2 st5 st6">Engine</text>
</g>
<path class="st15" d="M799.2,197.4c9.3,0,16.9,7.6,16.9,16.9c0,9.3-7.6,16.9-16.9,16.9H697.7c-9.3,0-16.9-7.6-16.9-16.9
	c0-9.3,7.6-16.9,16.9-16.9H799.2z"/>
<g>
	<rect x="680.7" y="206.9" class="st4" width="135.4" height="17.6"/>
	<text transform="matrix(1 0 0 1 715.5856 221.7074)" class="st2 st5 st6">Engine</text>
</g>
</svg>
