<?xml version="1.0" encoding="utf-8"?>
<!-- Generator: Adobe Illustrator 23.0.4, SVG Export Plug-In . SVG Version: 6.00 Build 0)  -->
<svg version="1.1" id="Layer_1" xmlns="http://www.w3.org/2000/svg" xmlns:xlink="http://www.w3.org/1999/xlink" x="0px" y="0px"
	 viewBox="0 0 416.4 79.5" style="enable-background:new 0 0 416.4 79.5;" xml:space="preserve">
<style type="text/css">
	.st0{fill:#384745;}
	.st1{fill:#815794;}
	.st2{fill:#FFFFFF;}
</style>
<g>
	<g>
		<path class="st0" d="M117.1,19.5h10v33.1H144V60h-26.9V19.5z"/>
		<path class="st0" d="M145.6,39.2c0-14.6,7.7-20.4,18.6-20.4c10.7,0,18.4,5.8,18.4,20.4c0,16.2-8,21.5-18.4,21.5
			C153.4,60.7,145.6,54.9,145.6,39.2z M172.4,39.2c0-10.1-4-13.3-8.3-13.3s-8.2,3.2-8.2,13.3c0,11.2,3.9,14.5,8.2,14.5
			S172.4,50.4,172.4,39.2z"/>
		<path class="st0" d="M188.1,19.5h10.7l10.6,20.1c0.9,1.7,2.1,4.8,3.1,7.2h0.2c-0.1-2.3-0.4-5.5-0.4-7.9V19.5h8.2V60h-10.5l-11-20
			c-1-1.8-2.1-4.4-2.9-6.6h-0.2c0.2,2.3,0.5,5,0.5,7.2V60h-8.2V19.5z"/>
		<path class="st0" d="M244.2,39.6h16.7V60h-6.8v-6.8c-1.4,4.5-4.7,7.6-11.6,7.6c-9.4,0-16.4-6.5-16.4-21.2s7.1-20.8,18.1-20.8
			c12.4,0,17.3,7,15.9,14.2l-9.4,1c0.7-5.6-2-8.1-6-8.1c-4.4,0-8.2,3.2-8.2,13.9s3.3,13.7,8.2,13.7c4.5,0,7-2.8,7.1-5.5v-1.1h-7.6
			V39.6z"/>
		<path class="st0" d="M266.9,19.5h10v15.3h12.3V19.5h10V60h-10V42.9h-12.3V60h-10V19.5z"/>
		<path class="st0" d="M304.7,39.2c0-14.6,7.7-20.4,18.6-20.4c10.7,0,18.4,5.8,18.4,20.4c0,16.2-8,21.5-18.4,21.5
			C312.4,60.7,304.7,54.9,304.7,39.2z M331.4,39.2c0-10.1-4-13.3-8.3-13.3c-4.3,0-8.2,3.2-8.2,13.3c0,11.2,3.9,14.5,8.2,14.5
			C327.5,53.7,331.4,50.4,331.4,39.2z"/>
		<path class="st0" d="M347.2,19.5h16.7c7.9,0,13.3,3.8,13.3,11.3c0,6.1-4.1,9.7-8.2,11c1.2,1,2.1,2.4,2.8,3.8
			c1.7,3.4,2.8,7.2,6.4,7.2c0.9,0,1.6-0.3,1.6-0.3l-0.8,7.1c0,0-2.2,0.5-4,0.5c-4.8,0-7.6-1.9-10.4-8.3c-1.2-2.9-2.9-7.9-5.1-7.9
			h-2.3v16h-10V19.5z M357.2,26.8v10h3.6c2.9,0,6.2-0.9,6.2-5.2c0-3.5-2.3-4.7-5-4.7H357.2z"/>
		<path class="st0" d="M383.9,19.5h10.7l10.6,20.1c0.9,1.7,2.1,4.8,3.1,7.2h0.2c-0.1-2.3-0.4-5.5-0.4-7.9V19.5h8.2V60h-10.5l-11-20
			c-1-1.8-2.1-4.4-2.9-6.6h-0.2c0.2,2.3,0.5,5,0.5,7.2V60h-8.2V19.5z"/>
	</g>
	<path class="st1" d="M86.8,79.5H10.3C4.6,79.5,0,74.9,0,69.3v-59C0,4.6,4.6,0,10.3,0h76.6c5.7,0,10.3,4.6,10.3,10.3v59
		C97.1,74.9,92.5,79.5,86.8,79.5z"/>
	<path class="st2" d="M85.1,20h-10v3.5H22V20H12v13.5h22.5v31h28.1v-31h22.5V20z M52.6,54.5h-8.1v-21h8.1V54.5z"/>
</g>
</svg>
