<?xml version="1.0" encoding="utf-8"?>
<!-- Generator: Adobe Illustrator 23.0.2, SVG Export Plug-In . SVG Version: 6.00 Build 0)  -->
<svg version="1.1" id="Layer_1" xmlns="http://www.w3.org/2000/svg" xmlns:xlink="http://www.w3.org/1999/xlink" x="0px" y="0px"
	 viewBox="0 0 213.1 213.1" style="enable-background:new 0 0 213.1 213.1;" xml:space="preserve">
<style type="text/css">
	.st0{fill:#D7DADA;}
</style>
<title>logo-round</title>
<path class="st0" d="M207.3,141.4h-51c-1.2,0-2.3,0.5-3.1,1.3l-23.3,23.2H18c2.1,3.1,4.3,6,6.6,8.9h107c1.2,0,2.3-0.5,3.1-1.3
	l23.3-23.2h45.7C205.1,147.3,206.2,144.4,207.3,141.4z"/>
<path class="st0" d="M144.1,111.8c-1.2,0-2.3,0.5-3.1,1.3l-23.3,23.2H4.2c0.9,3,1.9,6,3,8.9h112.3c1.2,0,2.3-0.5,3.1-1.3l23.3-23.2
	h66.3c0.4-2.9,0.7-5.9,0.8-8.9L144.1,111.8z"/>
<path class="st0" d="M62.9,86.5c1.2,0,2.3-0.5,3.1-1.3l23.3-23.2h114c-1.4-3-2.9-6-4.6-8.9H87.5c-1.2,0-2.3,0.5-3.1,1.3L61.1,77.7H4
	c-0.8,2.9-1.5,5.9-2.1,8.9H62.9z"/>
<path class="st0" d="M207.3,141.4h-61.6l-23.3-23.2c-0.8-0.8-2-1.3-3.1-1.3H83.5L60.2,93.7c-0.8-0.8-2-1.3-3.1-1.3H0.9
	c-0.4,2.9-0.7,5.9-0.8,8.9h55.1l23.3,23.2c0.8,0.8,2,1.3,3.1,1.3h35.7l23.3,23.2c0.8,0.8,2,1.3,3.1,1.3h59.9
	C205.1,147.3,206.2,144.4,207.3,141.4z"/>
<path class="st0" d="M157.9,111.8l-23.3-23.2c-0.8-0.8-2-1.3-3.1-1.3H95.7L72.4,64.2c-0.8-0.8-2-1.3-3.1-1.3H9.3
	c-1.3,2.9-2.5,5.8-3.5,8.9h61.6l23.3,23.2c0.8,0.8,2,1.3,3.1,1.3h35.7l23.3,23.2c0.8,0.8,2,1.3,3.1,1.3h56.2
	c0.4-2.9,0.7-5.9,0.8-8.9L157.9,111.8z"/>
<path class="st0" d="M151.8,126.6l-23.3-23.2c-0.8-0.8-2-1.3-3.1-1.3H89.6L66.3,78.9c-0.8-0.8-2-1.3-3.1-1.3H4
	c-0.8,2.9-1.5,5.9-2.1,8.9h59.5l23.3,23.2c0.8,0.8,2,1.3,3.1,1.3h35.7l23.3,23.2c0.8,0.8,2,1.3,3.1,1.3h59.2
	c0.8-2.9,1.5-5.9,2.1-8.9L151.8,126.6z"/>
<path class="st0" d="M150.2,126.6c-1.2,0-2.3,0.5-3.1,1.3l-23.3,23.2H9.7c1.4,3,2.9,6,4.6,8.9h111.3c1.2,0,2.3-0.5,3.1-1.3
	l23.3-23.2h57.1c0.8-2.9,1.5-5.9,2.1-8.9L150.2,126.6z"/>
<path class="st0" d="M69,101.3c1.2,0,2.3-0.5,3.1-1.3l23.3-23.2h113.4c-0.9-3-1.9-6-3-8.9H93.6c-1.2,0-2.3,0.5-3.1,1.3L67.2,92.4
	H0.9c-0.4,2.9-0.7,5.9-0.8,8.9H69z"/>
<path class="st0" d="M5.8,71.7h51c1.2,0,2.3-0.5,3.1-1.3l23.3-23.2h111.8c-2.1-3.1-4.3-6-6.6-8.9h-107c-1.2,0-2.3,0.5-3.1,1.3
	L55,62.9H9.3C8,65.8,6.9,68.7,5.8,71.7z"/>
<path class="st0" d="M106.6,6c55.5,0,100.6,45,100.6,100.6c0,55.5-45,100.6-100.6,100.6S6,162.1,6,106.6c0,0,0,0,0,0
	C6.1,51,51,6.1,106.6,6 M106.6,0C47.7,0,0,47.7,0,106.6s47.7,106.6,106.6,106.6s106.6-47.7,106.6-106.6c0,0,0,0,0,0
	C213.1,47.7,165.4,0,106.6,0C106.6,0,106.6,0,106.6,0z"/>
</svg>
