<svg xmlns="http://www.w3.org/2000/svg" viewBox="0 0 965.52143 185.49894"><defs><style>.cls-1{fill:#2adfc3;}.cls-2{fill:#287efb;}.cls-3{fill:#384745;}</style></defs><title>logo</title><g id="Layer_1" data-name="Layer 1"><path class="cls-1" d="M176.63444,8.86453V176.63441H8.86453V8.86453H176.63444m0-8.86453H8.86453A8.86456,8.86456,0,0,0,0,8.86453V176.63441a8.86456,8.86456,0,0,0,8.86453,8.86453H176.63444a8.86455,8.86455,0,0,0,8.86453-8.86453V8.86453A8.86455,8.86455,0,0,0,176.63444,0Z"/><path class="cls-2" d="M105.67557,131.34451h-82.037V122.48h80.20754l23.29363-23.1782a4.43183,4.43183,0,0,1,3.12625-1.29044H161.8603v8.86453H132.09545l-23.29363,23.17821A4.43237,4.43237,0,0,1,105.67557,131.34451Z"/><path class="cls-2" d="M117.87238,160.89294H23.63857v-8.86453h92.40435l23.29363-23.1782a4.43183,4.43183,0,0,1,3.12624-1.29044H161.8603v8.86453h-17.568l-23.29363,23.17821A4.43187,4.43187,0,0,1,117.87238,160.89294Z"/><path class="cls-2" d="M49.13419,72.7128H23.63857V63.84827H47.30472l23.29421-23.1782a4.43238,4.43238,0,0,1,3.12625-1.29044H161.8603v8.86453H75.55464L52.26043,71.42237A4.43235,4.43235,0,0,1,49.13419,72.7128Z"/><path class="cls-1" d="M161.8603,106.87587H142.2181a4.43234,4.43234,0,0,1-3.12625-1.29044l-23.29363-23.1782H80.06828A4.43234,4.43234,0,0,1,76.942,81.11679l-23.2942-23.1782H23.63857V49.07406H55.47729a4.43239,4.43239,0,0,1,3.12625,1.29043L81.89774,73.5427h35.72994a4.43187,4.43187,0,0,1,3.12625,1.29043l23.29363,23.17821H161.8603Z"/><path class="cls-1" d="M161.8603,136.4243h-31.839a4.43187,4.43187,0,0,1-3.12625-1.29043l-23.29363-23.17821H67.87205a4.43237,4.43237,0,0,1-3.12625-1.29043L41.45159,87.487h-17.813V78.62249H43.28106a4.43236,4.43236,0,0,1,3.12625,1.29044l23.2942,23.1782h35.72936a4.43234,4.43234,0,0,1,3.12625,1.29044l23.29363,23.1782H161.8603Z"/><path class="cls-1" d="M161.8603,121.65009H136.12a4.4324,4.4324,0,0,1-3.12625-1.29044l-23.2942-23.17821H73.96987A4.43237,4.43237,0,0,1,70.84363,95.891L47.54942,72.7128H23.63857V63.84827H49.37888a4.43238,4.43238,0,0,1,3.12625,1.29044L75.79934,88.31692H111.529a4.43188,4.43188,0,0,1,3.12625,1.29043l23.2942,23.17821H161.8603Z"/><path class="cls-2" d="M111.77369,146.11873H23.63857V137.2542h86.30565L133.23843,114.076a4.43237,4.43237,0,0,1,3.12625-1.29043H161.8603v8.86453H138.19414l-23.2942,23.1782A4.4324,4.4324,0,0,1,111.77369,146.11873Z"/><path class="cls-2" d="M43.03636,57.93859H23.63857V49.07406H41.2069L64.5011,25.89643A4.4324,4.4324,0,0,1,67.62735,24.606H161.8603v8.86453H69.45681L46.16261,56.64815A4.43236,4.43236,0,0,1,43.03636,57.93859Z"/><path class="cls-2" d="M55.232,87.487H23.63857V78.62249h29.764L76.69676,55.44486A4.43235,4.43235,0,0,1,79.823,54.15443h82.0373V63.019H81.65247L58.35826,86.19658A4.43234,4.43234,0,0,1,55.232,87.487Z"/><path class="cls-3" d="M220.51056,115.22679H250.206c.82138,0,1.291-.46959,1.291-1.057v-11.5025c0-.58739-.46959-1.057-1.291-1.057H229.78292c-5.51646,0-9.27236-3.75511-9.27236-9.27237V62.40855c0-5.51567,3.7559-9.27237,9.27236-9.27237h40.96315V70.15594H242.1076a1.20583,1.20583,0,0,0-1.174,1.291V83.06562a1.16048,1.16048,0,0,0,1.174,1.057h20.42228c5.51646,0,9.27236,3.75511,9.27236,9.27236v29.69544c0,5.51566-3.7559,9.27236-9.27236,9.27236H220.51056Z"/><path class="cls-3" d="M312.64044,53.13618v61.03364a1.13462,1.13462,0,0,0,1.05617,1.057h14.90582a1.19465,1.19465,0,0,0,1.291-1.057V53.13618h20.42307v70.18821a8.86919,8.86919,0,0,1-8.92057,9.03836h-40.141a9.04033,9.04033,0,0,1-9.03757-9.03836V53.13618Z"/><path class="cls-3" d="M372.84473,132.36275V53.13618h48.82675c6.45564,0,10.56333,4.1085,10.56333,9.97595V80.71927c0,5.39787-3.52111,10.56333-10.79812,12.32389,7.277,1.76055,11.38551,6.69043,11.38551,11.97209V122.269c0,6.22084-4.1085,10.09374-10.56413,10.09374Zm39.78918-62.20681a1.1996,1.1996,0,0,0-1.174-1.29256H393.15V85.29576H411.46a1.1407,1.1407,0,0,0,1.174-1.291Zm0,30.98482a1.19912,1.19912,0,0,0-1.174-1.291H393.15v17.48935H411.46a1.10631,1.10631,0,0,0,1.174-1.17477Z"/><path class="cls-3" d="M472.25242,87.5259v44.83685H453.47211V53.13618h20.65866L490.092,90.10784l14.67182-36.97166H526.36v79.22657H507.11173V86.70452l-13.38085,31.456h-7.9814Z"/><path class="cls-3" d="M606.98582,132.36275H586.56275V112.64326H568.6054v19.71949H548.18233V62.40855c0-5.51567,3.75511-9.27237,9.27236-9.27237h40.25877c5.51566,0,9.27236,3.7567,9.27236,9.27237ZM586.56275,95.5073V71.68091c0-1.40876-1.17317-2.34794-2.81753-2.34794H571.06954a2.38187,2.38187,0,0,0-2.46414,2.34794V95.5073Z"/><path class="cls-3" d="M678.57642,53.13618a8.91463,8.91463,0,0,1,8.919,8.92057V98.32482a9.07015,9.07015,0,0,1-8.919,8.92058H677.989l9.74195,25.11735H667.7775l-9.85974-25.11735h-8.685v25.11735H628.8097V53.13618Zm-11.3863,18.19294a1.2549,1.2549,0,0,0-1.05538-1.17318h-16.902V91.2826h16.902a1.24434,1.24434,0,0,0,1.05538-1.057Z"/><path class="cls-3" d="M728.80159,132.36275H708.49631V53.13618h20.30528Z"/><path class="cls-3" d="M770.11255,88.81687v43.54588H751.33224V53.13618h18.78031l23.7086,43.66209V53.13618h18.78031v79.22657H793.23377Z"/><path class="cls-3" d="M835.12734,53.13618h51.76127V70.15594h-31.456V84.00479h27.2313v16.902h-27.2313v14.32h31.456v17.136H835.12734Z"/><path class="cls-3" d="M956.36686,53.13618a8.91463,8.91463,0,0,1,8.919,8.92057V98.32482a9.07015,9.07015,0,0,1-8.919,8.92058h-.58738l9.74195,25.11735H945.56794L935.7082,107.2454h-8.685v25.11735H906.60014V53.13618Zm-11.3863,18.19294a1.2549,1.2549,0,0,0-1.05538-1.17318h-16.902V91.2826h16.902a1.24434,1.24434,0,0,0,1.05538-1.057Z"/></g></svg>