<?xml version="1.0" encoding="utf-8"?>
<!-- Generator: Adobe Illustrator 23.0.1, SVG Export Plug-In . SVG Version: 6.00 Build 0)  -->
<svg version="1.1" id="Layer_1" xmlns="http://www.w3.org/2000/svg" xmlns:xlink="http://www.w3.org/1999/xlink" x="0px" y="0px"
   viewBox="0 0 864.1199951 93.8199997" style="enable-background:new 0 0 864.1199951 93.8199997;" xml:space="preserve">
<style type="text/css">
  .st0{fill:#FFFFFF;}
</style>
<title>logos-registered</title>
<path class="st0" d="M200.2100067,20.6399994L198,7.6100001C197.3399963,3.4200001,195.7100067,0,194.4100037,0
  s-2.3500061,3.47-2.3500061,7.71v3.4099998c-0.0109863,4.2535572-3.4564514,7.6990118-7.7100067,7.71h-3.4100037h-0.7299957
  v9.3700008h0.7299957h12.8199921c3.4934082,0.1335011,6.433609-2.5902462,6.5671082-6.0836582
  c0.0195618-0.5120506-0.0231171-1.0245819-0.1271057-1.5263424"/>
<path class="st0" d="M169.4700012,9.6099997h-20.7799988h-0.5099945h-21.3500061
  c-0.2445221,0.0010204-0.4885941,0.021081-0.7300034,0.0600004v-2C126.0999985,3.47,125,0,123.7399979,0
  s-2.9199982,3.4200001-3.6200027,7.6100001l-2.1699982,13c-0.7094727,3.423214,1.490448,6.7734222,4.9136581,7.4828968
  c0.5017624,0.1039906,1.0142975,0.1466713,1.5263443,0.1271038h12.8199921
  c1.2391815,0.0046597,2.4712372-0.1877422,3.6499939-0.5699997c-0.4178925,2.2234554-2.3576202,3.8356972-4.6199951,3.8400002h-18
  c-2.6011887-0.0193024-4.6942215-2.143631-4.6749191-4.7448196c0.0018539-0.2497234,0.0235596-0.4989033,0.0649261-0.745182
  l1.8199997-10.9200001c0.4252625-2.5662642-1.3103638-4.991375-3.8766251-5.4166365
  c-0.2523193-0.0418119-0.5076218-0.0630026-0.7633743-0.0633631H21.3299999
  C19.4578094,9.5876045,17.7568188,10.6875525,17,12.3999996L0.19,38c-0.2841312,0.4348984-0.2474777,1.0050659,0.09,1.4000015
  l3.27,3.8600006c0.4083083,0.4818306,1.125324,0.5526466,1.6200001,0.1599998l11.4499989-9v54.8400002
  c-0.0165672,2.6012115,2.0786991,4.7233353,4.6799068,4.7398987C21.3099365,93.9999695,21.3199692,94,21.3299999,94h25.3999996
  c2.6012611,0,4.7099991-2.1087418,4.7099991-4.7099991V70.1900024c0-2.6012573,2.1087379-4.7099991,4.7099991-4.7099991h63.4099998
  c2.6012573,0,4.7099991,2.1087418,4.7099991,4.7099991v19.0699997c-0.0165939,2.6012115,2.0786591,4.7233505,4.679863,4.7399445
  C128.966568,94.0000534,128.9832916,94.0000687,129,94h25.3999939c2.6012573,0,4.7100067-2.1087341,4.7100067-4.7099915
  c0-0.0000076,0-0.0000076,0-0.0000076V68.7399979h-13.5200043c-4.2652435-0.0110397-7.7155151-3.4747391-7.7099915-7.7399979
  V47.8300018c0.004715-2.4271584,1.1535645-4.7100143,3.1000061-6.1599998v15.7499962
  c0.0109863,4.2535553,3.4564514,7.6990128,7.7100067,7.7099991h20.7899933
  c4.2535553-0.0109863,7.6990204-3.4564438,7.7100067-7.7099991V17.3199997c-0.0109863-4.2535572-3.4564514-7.6990128-7.7100067-7.71
  "/>
<path class="st0" d="M201.6300049,4.9200001c0-2.7061961,2.1938019-4.9000015,4.8999939-4.9000015
  c2.7062073,0,4.9000092,2.1938055,4.9000092,4.9000015s-2.1938019,4.9000015-4.9000092,4.9000015
  C203.8238068,9.8200016,201.6300049,7.6261964,201.6300049,4.9200001z M210.25,4.9200001
  c0.2248383-1.9309964-1.1582642-3.678648-3.0892639-3.9034889C206.9514008,0.9921378,206.7403107,0.9866118,206.5299988,1
  c-1.9625702-0.1182368-3.6494141,1.376895-3.7676392,3.3394704c-0.0106506,0.1767874-0.0081024,0.3541226,0.0076447,0.5305295
  c-0.1643829,1.9481649,1.281662,3.6607246,3.2298126,3.8251095c0.1763611,0.0148811,0.3535767,0.0165157,0.5301819,0.0048904
  c1.9286804,0.128993,3.5967712-1.3299484,3.7257538-3.2586365c0.0120697-0.1803322,0.0101471-0.3613281-0.0057526-0.5413632
  V4.9200001z M204.9100037,2.48h1.7200012c0.8800049,0,1.7700043,0.25,1.7700043,1.49
  c0.0126648,0.6662929-0.4956818,1.2272322-1.1600037,1.28l1.1600037,2h-1.0500031l-1.0700073-1.9499998h-0.4199982V7.21h-0.9499969
  V2.46V2.48z M206.7200012,4.6500001c0.3851776,0.0331559,0.7243042-0.252212,0.7574615-0.6373873
  c0.0014954-0.0174994,0.0023499-0.0350494,0.002533-0.0526128c0.0007477-0.3534615-0.2851868-0.6406031-0.6386414-0.6413486
  c-0.0407257-0.0000858-0.0813599,0.0037141-0.1213531,0.0113485h-0.8600006v1.29h0.8600006V4.6500001z"/>
<path class="st0" d="M216.9400024,13.0699997h28.5500031c13.5600128,0,22.6999969,6.5699997,22.6999969,19.3099976
  c0,10.3699989-7.0899963,16.6399994-14,18.7999992C256.2150879,53.0276146,257.8504639,55.2613716,259,57.75
  c2.8800049,5.8499985,4.8299866,12.3199997,10.8900146,12.3199997c0.946228-0.0048447,1.8840942-0.1775208,2.769989-0.5100021
  l-1.3399963,12.2200012c-2.2554321,0.5433655-4.5610657,0.8516769-6.8800049,0.9199982
  c-8.2200012,0-12.9400024-3.1800003-17.7700043-14.1699982C244.6699982,63.5999985,241.7899933,55,238,55h-3.8999939v27.4000015
  h-17.1600037V13.0699997z M234.0899963,25.5v17H240.25c4.9299927,0,10.6799927-1.5400009,10.6799927-8.9300003
  c0-6.0599995-3.8999939-8.1199989-8.6300049-8.1199989h-8.2200012L234.0899963,25.5z"/>
<path class="st0" d="M291.3900146,13.0699997H308.75l23.4200134,69.3300018h-17.3600159L310.5,69.25h-23.2099915
  l-4.2200012,13.1500015h-15L291.3900146,13.0699997z M291.3900146,56.5200005h14.8900146l-4.7200012-14.579998
  C300.4170532,38.0387878,299.6271973,34.0426979,299.2000122,30h-0.4100037
  c-0.5847473,3.9909592-1.4434509,7.9369469-2.5700073,11.8100014L291.3900146,56.5200005z"/>
<path class="st0" d="M332.8800049,13.0699997h18.3900146l18.1799927,34.4099998
  c1.5400085,3,3.5899963,8.2200012,5.2399902,12.3199997h0.4100037c-0.2000122-3.9000015-0.7200012-9.4500008-0.7200012-13.4500008
  V13.0699997h14.0700073v69.3300018h-18l-18.8999939-34.3100014c-1.9075928-3.6553841-3.5777283-7.4298668-5-11.2999992h-0.4100037
  c0.3099976,3.9000015,0.8200073,8.5299988,0.8200073,12.3199997v33.2900009h-14.0800171V13.0699997z"/>
<path class="st0" d="M392.1300049,47.2700005c0-25.0599995,12.4299927-35.4399986,31.6300049-35.4399986
  c20.230011,0,28.3500061,11.0900002,26.0899963,26.0900002l-16,1.4399986c1.75-11-2.5700073-15.4099998-10.3699951-15.4099998
  C416,24,409.8999939,29.5,409.8999939,47.3699989c0,18.8999977,6.5700073,23.7299995,14.0700073,23.7299995
  c7.0899963,0,12.8399963-4.4199982,11.6099854-13.4599991l15,1.5400009c1.1300049,14.0699997-9,24.4400024-27.5299988,24.4400024
  c-18.7999878,0-30.9200134-11.090004-30.9200134-36.3600006"/>
<polygon class="st0" points="456.0599976,13.0699997 473.2099915,13.0699997 473.2099915,39.2599983 494.2600098,39.2599983
  494.2600098,13.0699997 511.4200134,13.0699997 511.4200134,82.4000015 494.2600098,82.4000015 494.2600098,53.0200005
  473.2099915,53.0200005 473.2099915,82.4000015 456.0599976,82.4000015 "/>
<polygon class="st0" points="516.289978,13.0699997 562.2000122,13.0699997 562.2000122,25.8099995 533.4400024,25.8099995
  533.4400024,40.7000008 557.5800171,40.7000008 557.5800171,53.4399986 533.4400024,53.4399986 533.4400024,69.6600037
  563.2299805,69.6600037 563.2299805,82.4000015 516.289978,82.4000015 "/>
<path class="st0" d="M566.5100098,13.0699997h28.5499878c13.5599976,0,22.7000122,6.5699997,22.7000122,19.3099976
  c0,10.3699989-7.0900269,16.6399994-14,18.7999992c2.0325317,1.8455582,3.6748047,4.0794868,4.8300171,6.5699997
  c2.8800049,5.8499985,4.8300171,12.3199959,10.8900146,12.3199959c0.946228-0.0048447,1.8840942-0.1775208,2.7700195-0.5100021
  l-1.3300171,12.2200012c-2.2554321,0.5432205-4.5610962,0.851532-6.8800049,0.9199982
  c-8.2199707,0-12.9400024-3.1800003-17.7700195-14.1699982C594.2399902,63.5999985,591.3599854,55,587.5599976,55h-3.9000244
  v27.4000015h-17.1499634V13.0699997z M583.6599731,25.5v17h6.1599731c4.9299927,0,10.6799927-1.5400009,10.6799927-8.9300003
  c0-6.0599995-3.9000244-8.1199989-8.6300049-8.1199989h-8.2199707L583.6599731,25.5z"/>
<path class="st0" d="M641,14.0699997h17.1500244v56.5800018H687v12.7299957h-46V14.0699997z"/>
<path class="st0" d="M706.2199707,14.0699997h17.3499756L747,83.3799973h-17.3699951l-4.3099976-13.1399994h-23.210022
  l-4.2099609,13.1399994h-15L706.2199707,14.0699997z M706.2199707,57.5h14.8900146l-4.7199707-14.5800018
  C715.2379761,39.0262642,714.4380493,35.0368958,714,31h-0.4099731C712.9989014,34.9947586,712.1335449,38.9440956,711,42.8199997
  L706.2199707,57.5z"/>
<path class="st0" d="M749.3400269,14.0699997H779c12.2199707,0,21.460022,4.1100006,21.460022,16.7399998
  c0,9.5500011-5.2399902,13.2499981-14.1699829,15.1999989v0.4099998
  c10.1599731,1.2299995,16.3300171,6.5699997,16.3300171,16.9400024c0,13.5500031-9.75,20-22.7999878,20h-30.5V14.0699997
  H749.3400269z M774,40.6599998c4.5200195,0,9-1.2299995,9-7.1899986s-4-7-8-7h-8.6300049v14.1899986H774z M775.6300049,71
  c5.2399902,0,9.7600098-2.5699997,9.7600098-9.4500008c0-6-4.5200195-8.420002-9.7600098-8.420002h-9.2399902V71H775.6300049z"/>
<path class="st0" d="M820.2700195,60.5800018c-1.2299805,5.5400009,0.9199829,11.9100037,11.8099976,11.9100037
  c7.1900024,0,9.6500244-2.8799973,9.6500244-6.6699982c0-5.75-5.75-7.1899986-12.5300293-9.6500015
  c-10.1699829-3.4900017-22.6900024-8.4199982-22.6900024-22.9000015c0-12.9399986,10-20.8400002,26.9000244-20.4300003
  C854.1500244,13.25,860,25.4699993,857.75,36L842,37.4799995c1-8-1.8499756-12.5299988-10-12.5299988
  c-5.4400024,0-8.5200195,2.0499992-8.5200195,6.3699989c0,5.75,5.5499878,7.5,12.3200073,9.8600006
  c10.4699707,3.4900017,22.9000244,7.7000008,22.9000244,22.0800018c0,12.4199982-9.2399902,21.3600006-27.3099976,21.3600006
  c-16.9400024,0-28.5499878-7.8000031-26.1799927-22.5900002L820.2700195,60.5800018z"/>
</svg>
