<svg xmlns="http://www.w3.org/2000/svg" id="Layer_1" data-name="Layer 1" viewBox="0 0 200 165"><defs><style>.cls-1{fill:#00a580;}.cls-2{fill:#fff;}</style></defs><rect class="cls-1" width="200" height="165" rx="20"/><path class="cls-2" d="M158.93945,121.73682H119.40527a5.0009,5.0009,0,0,1-4.33007-2.5L95.30859,84.99951a4.99813,4.99813,0,0,1,0-5L115.0752,45.7627a5.00088,5.00088,0,0,1,4.33007-2.5h39.53418a5.00088,5.00088,0,0,1,4.33008,2.5l19.7666,34.23681a4.99808,4.99808,0,0,1,0,5l-19.7666,34.23731A5.0009,5.0009,0,0,1,158.93945,121.73682Zm-36.64746-10h33.76074l16.87989-29.23731L156.05273,53.2627H122.292L105.41211,82.49951Z"/><path class="cls-2" d="M147.39258,101.73633H130.95312a5.0009,5.0009,0,0,1-4.33007-2.5L118.40332,85a4.99813,4.99813,0,0,1,0-5l8.21973-14.2373a5.00088,5.00088,0,0,1,4.33007-2.5h16.43946a5.00091,5.00091,0,0,1,4.33008,2.5L159.94238,80a4.99808,4.99808,0,0,1,0,5l-8.21972,14.23633A5.00093,5.00093,0,0,1,147.39258,101.73633Zm-13.55274-10h10.666l5.333-9.23633-5.333-9.2373h-10.666l-5.333,9.2373Z"/><path class="cls-2" d="M50.34082,121.73682H40.958a5.00092,5.00092,0,0,1-4.33008-2.5L16.86133,84.99951a4.99808,4.99808,0,0,1,0-5L36.62793,45.7627a5.0009,5.0009,0,0,1,4.33008-2.5h9.38281a5,5,0,0,1,0,10H43.84473L26.96484,82.49951l16.87989,29.23731h6.49609a5,5,0,1,1,0,10Z"/><path class="cls-2" d="M76.49023,121.73682H67.10742a5.00093,5.00093,0,0,1-4.33008-2.5L43.01074,84.99951a4.99813,4.99813,0,0,1,0-5L62.77734,45.7627a5.00091,5.00091,0,0,1,4.33008-2.5h9.38281a5,5,0,0,1,0,10H69.99414L53.11426,82.49951l16.87988,29.23731h6.49609a5,5,0,0,1,0,10Z"/><path class="cls-2" d="M102.63867,121.73682H93.25684a5.0009,5.0009,0,0,1-4.33008-2.5L69.16016,84.99951a4.99808,4.99808,0,0,1,0-5L88.92676,45.7627a5.00088,5.00088,0,0,1,4.33008-2.5h9.38183a5,5,0,0,1,0,10H96.14355L79.26367,82.49951l16.87988,29.23731h6.49512a5,5,0,1,1,0,10Z"/><path class="cls-2" d="M130.958,73.26367a4.99757,4.99757,0,0,1-4.335-2.501l-11.54785-20a5,5,0,1,1,8.66015-5l11.54785,20a5.00157,5.00157,0,0,1-4.32519,7.501Z"/><path class="cls-2" d="M147.3877,73.26367a5.00157,5.00157,0,0,1-4.3252-7.501l11.54688-20a5,5,0,1,1,8.66015,5l-11.54687,20A4.99758,4.99758,0,0,1,147.3877,73.26367Z"/><path class="cls-2" d="M178.70605,87.5H155.6123a5,5,0,0,1,0-10h23.09375a5,5,0,0,1,0,10Z"/><path class="cls-2" d="M122.7334,87.5H99.63867a5,5,0,1,1,0-10H122.7334a5,5,0,1,1,0,10Z"/><path class="cls-2" d="M119.40039,121.73779a5.00157,5.00157,0,0,1-4.32519-7.501l11.54785-20.00049a5,5,0,1,1,8.66015,5l-11.54785,20.00049A4.99757,4.99757,0,0,1,119.40039,121.73779Z"/><path class="cls-2" d="M158.94434,121.73779a4.99757,4.99757,0,0,1-4.335-2.501L143.0625,99.23633a5,5,0,0,1,8.66016-5l11.54687,20.00049a5.00157,5.00157,0,0,1-4.32519,7.501Z"/><path class="cls-2" d="M101.50195,87.49951H21.19141a5,5,0,0,1,0-10h80.31054a5,5,0,0,1,0,10Z"/></svg>
