<?xml version="1.0" encoding="UTF-8"?>
<!DOCTYPE svg PUBLIC "-//W3C//DTD SVG 1.1//EN" "http://www.w3.org/Graphics/SVG/1.1/DTD/svg11.dtd">
<svg xmlns="http://www.w3.org/2000/svg" version="1.1" width="512px" height="512px" style="shape-rendering:geometricPrecision; text-rendering:geometricPrecision; image-rendering:optimizeQuality; fill-rule:evenodd; clip-rule:evenodd" xmlns:xlink="http://www.w3.org/1999/xlink">
<g><path style="opacity:0.999" fill="#017ebc" d="M 408.5,57.5 C 437.671,71.8591 454.838,95.1924 460,127.5C 461.641,209.812 461.975,292.146 461,374.5C 456.993,419.503 433.16,447.669 389.5,459C 384.511,459.749 379.511,460.415 374.5,461C 295.167,461.667 215.833,461.667 136.5,461C 90.6078,456.769 62.4411,432.269 52,387.5C 51.07,382.201 50.4034,376.867 50,371.5C 49.3333,294.167 49.3333,216.833 50,139.5C 51.64,104.76 67.14,78.4264 96.5,60.5C 97.5137,59.3263 98.847,58.6596 100.5,58.5C 102.553,58.5979 104.22,57.9313 105.5,56.5C 116.897,51.7861 128.897,49.2861 141.5,49C 217.5,48.3333 293.5,48.3333 369.5,49C 383.175,49.366 396.175,52.1993 408.5,57.5 Z"/></g>
<g><path style="opacity:0.006" fill="#000000" d="M 105.5,56.5 C 104.22,57.9313 102.553,58.5979 100.5,58.5C 101.78,57.0687 103.447,56.4021 105.5,56.5 Z"/></g>
<g><path style="opacity:0.086" fill="#000000" d="M 408.5,57.5 C 430.943,66.7733 447.443,82.44 458,104.5C 463.292,116.96 466.292,129.96 467,143.5C 467.667,221.5 467.667,299.5 467,377.5C 461.498,435.002 429.998,466.502 372.5,472C 291.479,472.974 210.479,472.641 129.5,471C 83.8891,463.722 56.0557,437.555 46,392.5C 45.1533,386.186 44.4866,379.853 44,373.5C 43.3333,298.167 43.3333,222.833 44,147.5C 44.6517,111.912 59.4851,84.0782 88.5,64C 91.0711,62.5462 93.7378,61.3795 96.5,60.5C 67.14,78.4264 51.64,104.76 50,139.5C 49.3333,216.833 49.3333,294.167 50,371.5C 50.4034,376.867 51.07,382.201 52,387.5C 62.4411,432.269 90.6078,456.769 136.5,461C 215.833,461.667 295.167,461.667 374.5,461C 379.511,460.415 384.511,459.749 389.5,459C 433.16,447.669 456.993,419.503 461,374.5C 461.975,292.146 461.641,209.812 460,127.5C 454.838,95.1924 437.671,71.8591 408.5,57.5 Z"/></g>
<g><path style="opacity:1" fill="#fefefe" d="M 75.5,152.5 C 86.8333,152.5 98.1667,152.5 109.5,152.5C 109.171,167.676 109.504,182.676 110.5,197.5C 110.427,199.027 111.094,200.027 112.5,200.5C 119.648,201.492 126.981,201.825 134.5,201.5C 134.5,212.833 134.5,224.167 134.5,235.5C 125.5,235.5 116.5,235.5 107.5,235.5C 89.3609,231.86 78.8609,220.86 76,202.5C 75.5001,185.837 75.3334,169.17 75.5,152.5 Z"/></g>
<g><path style="opacity:1" fill="#dcedf5" d="M 75.5,152.5 C 86.988,151.505 98.6547,151.172 110.5,151.5C 110.5,166.833 110.5,182.167 110.5,197.5C 109.504,182.676 109.171,167.676 109.5,152.5C 98.1667,152.5 86.8333,152.5 75.5,152.5 Z"/></g>
<g><path style="opacity:1" fill="#fdfefe" d="M 190.5,152.5 C 233.501,152.333 276.501,152.5 319.5,153C 336.705,156.538 347.872,166.705 353,183.5C 353.5,223.165 353.667,262.832 353.5,302.5C 288.5,302.5 223.5,302.5 158.5,302.5C 158.333,263.165 158.5,223.832 159,184.5C 163.683,167.985 174.183,157.318 190.5,152.5 Z"/></g>
<g><path style="opacity:1" fill="#fdfefe" d="M 400.5,151.5 C 412.167,151.5 423.833,151.5 435.5,151.5C 435.667,168.503 435.5,185.503 435,202.5C 431.837,221.663 420.671,232.829 401.5,236C 393.507,236.5 385.507,236.666 377.5,236.5C 377.5,224.833 377.5,213.167 377.5,201.5C 384.508,201.666 391.508,201.5 398.5,201C 399,200.5 399.5,200 400,199.5C 400.5,183.503 400.667,167.503 400.5,151.5 Z"/></g>
<g><path style="opacity:1" fill="#007fbd" d="M 196.5,187.5 C 236.543,187.173 276.543,187.506 316.5,188.5C 317.192,189.025 317.692,189.692 318,190.5C 318.5,216.165 318.667,241.831 318.5,267.5C 276.833,267.5 235.167,267.5 193.5,267.5C 193.333,241.831 193.5,216.165 194,190.5C 195.045,189.627 195.878,188.627 196.5,187.5 Z"/></g>
<g><path style="opacity:1" fill="#87c2df" d="M 112.5,200.5 C 120.167,200.5 127.833,200.5 135.5,200.5C 135.5,212.5 135.5,224.5 135.5,236.5C 125.985,236.827 116.652,236.494 107.5,235.5C 116.5,235.5 125.5,235.5 134.5,235.5C 134.5,224.167 134.5,212.833 134.5,201.5C 126.981,201.825 119.648,201.492 112.5,200.5 Z"/></g>
<g><path style="opacity:1" fill="#9ecee5" d="M 396.5,359.5 C 396.5,348.167 396.5,336.833 396.5,325.5C 302.5,325.5 208.5,325.5 114.5,325.5C 114.5,336.833 114.5,348.167 114.5,359.5C 113.505,348.012 113.172,336.345 113.5,324.5C 208.167,324.5 302.833,324.5 397.5,324.5C 397.828,336.345 397.495,348.012 396.5,359.5 Z"/></g>
<g><path style="opacity:1" fill="#fefffe" d="M 396.5,359.5 C 302.5,359.5 208.5,359.5 114.5,359.5C 114.5,348.167 114.5,336.833 114.5,325.5C 208.5,325.5 302.5,325.5 396.5,325.5C 396.5,336.833 396.5,348.167 396.5,359.5 Z"/></g>
</svg>
