<?xml version="1.0" standalone="no"?>
<!DOCTYPE svg PUBLIC "-//W3C//DTD SVG 20010904//EN"
 "http://www.w3.org/TR/2001/REC-SVG-20010904/DTD/svg10.dtd">
<svg version="1.0" xmlns="http://www.w3.org/2000/svg"
 width="213.000000pt" height="213.000000pt" viewBox="0 0 213.000000 213.000000"
 preserveAspectRatio="xMidYMid meet">
<metadata>
Created by potrace 1.11, written by Peter Selinger 2001-2013
</metadata>
<g transform="translate(0.000000,213.000000) scale(0.100000,-0.100000)"
fill="#000000" stroke="none">
<path d="M730 1932 c-8 -3 -84 -74 -169 -158 l-155 -152 -165 0 c-91 -1 -183
-1 -203 -1 l-38 -1 0 -58 0 -57 280 0 279 0 -35 -36 -35 -36 -232 -1 c-128 0
-238 -1 -244 -1 -9 -1 -13 -20 -13 -59 l0 -57 245 0 245 0 37 -37 36 -37 -219
0 c-120 0 -247 0 -282 -1 l-63 0 3 -57 3 -58 195 -1 c107 -1 200 -2 206 -3 6
0 81 -71 167 -156 l155 -155 244 0 243 -1 34 -33 33 -34 -33 -31 c-28 -25 -43
-31 -84 -31 -27 0 -301 -1 -607 -1 l-558 0 0 -60 0 -59 631 0 630 0 53 50 53
50 23 -25 24 -26 -61 -61 -61 -61 -646 0 -646 0 0 -59 0 -58 670 0 671 0 23
22 c13 13 48 47 79 76 53 53 55 54 79 38 14 -9 28 -13 31 -9 4 3 7 2 7 -3 0
-5 -42 -51 -93 -102 l-93 -93 -687 0 -687 -1 0 -43 c0 -82 -71 -75 717 -75
l704 0 159 158 159 157 195 0 196 0 0 57 c0 48 -3 58 -17 59 -10 0 -132 1
-271 1 l-253 1 35 36 35 36 236 0 235 0 0 57 0 58 -37 1 c-21 0 -128 0 -239 1
l-201 0 -32 33 c-21 22 -27 34 -19 37 7 2 129 4 271 3 l257 0 0 57 c0 39 -4
58 -12 59 -7 0 -96 1 -198 1 l-185 0 -160 158 -160 158 -237 0 c-218 -1 -238
0 -260 18 -50 41 -52 49 -16 83 l33 31 598 0 597 0 0 60 0 60 -625 -3 -624 -2
-48 -47 -48 -47 -27 23 -26 23 62 62 62 61 637 0 637 0 0 59 0 58 -665 -1
-664 -1 -73 -72 -73 -72 -37 12 -37 13 97 97 97 97 678 0 677 0 0 59 0 60
-692 -1 c-381 0 -700 -3 -708 -6z m-52 -535 l22 -23 -25 -24 -26 -24 -26 26
-27 27 25 20 c30 26 31 26 57 -2z m449 -207 l238 0 98 -93 c53 -51 97 -96 97
-100 0 -4 -8 -7 -19 -7 -10 0 -25 -7 -32 -16 -12 -15 -15 -14 -29 2 -9 11 -46
47 -82 81 l-66 62 -238 1 -238 0 -58 57 c-32 32 -58 60 -58 63 0 4 9 16 21 29
l21 22 53 -50 54 -51 238 0z m-396 -115 l77 -75 241 0 241 0 62 -60 62 -61
-27 -26 -27 -27 -47 49 -47 50 -244 2 -245 1 -94 94 c-51 51 -93 95 -93 98 0
5 40 24 59 29 3 1 39 -33 82 -74z m802 -313 c16 -15 16 -17 -5 -39 -27 -29
-43 -29 -62 -1 -14 20 -14 24 6 45 21 23 29 22 61 -5z"/>
</g>
</svg>
